<svg xmlns="http://www.w3.org/2000/svg" viewBox="0 320 260 150">
  <g transform="rotate(-90 128 396)">
    <rect x="199.275" y="392" style="fill:#412123;" width="7.1" height="7.1"/>
  <rect x="192.175" y="399.1" style="fill:#412123;" width="7.1" height="7.1"/>
  <rect x="192.175" y="392" style="fill:#7A5357;" width="7.1" height="7.1"/>
  <rect x="192.175" y="384.9" style="fill:#412123;" width="7.1" height="7.1"/>
  <rect x="185.075" y="406.2" style="fill:#412123;" width="7.1" height="7.1"/>
  <rect x="185.075" y="399.1" style="fill:#7A5357;" width="7.1" height="7.1"/>
  <rect x="185.075" y="392" style="fill:#7A5357;" width="7.1" height="7.1"/>
  <rect x="185.075" y="384.9" style="fill:#D4C3C4;" width="7.1" height="7.1"/>
  <rect x="185.075" y="377.8" style="fill:#412123;" width="7.1" height="7.1"/>
  <rect x="177.975" y="413.3" style="fill:#412123;" width="7.1" height="7.1"/>
  <rect x="177.975" y="406.2" style="fill:#7A5357;" width="7.1" height="7.1"/>
  <rect x="177.975" y="399.1" style="fill:#7A5357;" width="7.1" height="7.1"/>
  <rect x="177.975" y="392" style="fill:#B39599;" width="7.1" height="7.1"/>
  <rect x="177.975" y="384.9" style="fill:#D4C3C4;" width="7.1" height="7.1"/>
  <rect x="177.975" y="377.8" style="fill:#D4C3C4;" width="7.1" height="7.1"/>
  <rect x="177.975" y="370.7" style="fill:#412123;" width="7.1" height="7.1"/>
  <rect x="170.875" y="420.4" style="fill:#412123;" width="7.1" height="7.1"/>
  <rect x="170.875" y="413.3" style="fill:#7A5357;" width="7.1" height="7.1"/>
  <rect x="170.875" y="406.2" style="fill:#7A5357;" width="7.1" height="7.1"/>
  <rect x="170.875" y="399.1" style="fill:#B39599;" width="7.1" height="7.1"/>
  <rect x="170.875" y="392" style="fill:#B39599;" width="7.1" height="7.1"/>
  <rect x="170.875" y="384.9" style="fill:#B39599;" width="7.1" height="7.1"/>
  <rect x="170.875" y="377.8" style="fill:#D4C3C4;" width="7.1" height="7.1"/>
  <rect x="170.875" y="370.7" style="fill:#D4C3C4;" width="7.1" height="7.1"/>
  <rect x="170.875" y="363.6" style="fill:#412123;" width="7.1" height="7.1"/>
  <rect x="163.775" y="427.5" style="fill:#412123;" width="7.1" height="7.1"/>
  <rect x="163.775" y="420.4" style="fill:#7A5357;" width="7.1" height="7.1"/>
  <rect x="163.775" y="413.3" style="fill:#7A5357;" width="7.1" height="7.1"/>
  <rect x="163.775" y="406.2" style="fill:#B39599;" width="7.1" height="7.1"/>
  <rect x="163.775" y="399.1" style="fill:#B39599;" width="7.1" height="7.1"/>
  <rect x="163.775" y="392" style="fill:#B39599;" width="7.1" height="7.1"/>
  <rect x="163.775" y="384.9" style="fill:#B39599;" width="7.1" height="7.1"/>
  <rect x="163.775" y="377.8" style="fill:#B39599;" width="7.1" height="7.1"/>
  <rect x="163.775" y="370.7" style="fill:#D4C3C4;" width="7.1" height="7.1"/>
  <rect x="163.775" y="363.6" style="fill:#D4C3C4;" width="7.1" height="7.1"/>
  <rect x="163.775" y="356.5" style="fill:#412123;" width="7.1" height="7.1"/>
  <rect x="156.675" y="434.6" style="fill:#412123;" width="7.1" height="7.1"/>
  <rect x="156.675" y="427.5" style="fill:#7A5357;" width="7.1" height="7.1"/>
  <rect x="156.675" y="420.4" style="fill:#7A5357;" width="7.1" height="7.1"/>
  <rect x="156.675" y="413.3" style="fill:#B39599;" width="7.1" height="7.1"/>
  <rect x="156.675" y="406.2" style="fill:#B39599;" width="7.1" height="7.1"/>
  <rect x="156.675" y="399.1" style="fill:#B39599;" width="7.1" height="7.1"/>
  <rect x="156.675" y="392" style="fill:#B39599;" width="7.1" height="7.1"/>
  <rect x="156.675" y="384.9" style="fill:#B39599;" width="7.1" height="7.1"/>
  <rect x="156.675" y="377.8" style="fill:#B39599;" width="7.1" height="7.1"/>
  <rect x="156.675" y="370.7" style="fill:#B39599;" width="7.1" height="7.1"/>
  <rect x="156.675" y="363.6" style="fill:#D4C3C4;" width="7.1" height="7.1"/>
  <rect x="156.675" y="356.5" style="fill:#D4C3C4;" width="7.1" height="7.1"/>
  <rect x="156.675" y="349.4" style="fill:#412123;" width="7.1" height="7.1"/>
  <rect x="149.575" y="441.7" style="fill:#412123;" width="7.1" height="7.1"/>
  <rect x="149.575" y="434.6" style="fill:#7A5357;" width="7.1" height="7.1"/>
  <rect x="149.575" y="427.5" style="fill:#7A5357;" width="7.1" height="7.1"/>
  <rect x="149.575" y="420.4" style="fill:#B39599;" width="7.1" height="7.1"/>
  <rect x="149.575" y="413.3" style="fill:#B39599;" width="7.1" height="7.1"/>
  <rect x="149.575" y="406.2" style="fill:#B39599;" width="7.1" height="7.1"/>
  <rect x="149.575" y="399.1" style="fill:#B39599;" width="7.1" height="7.1"/>
  <rect x="149.575" y="392" style="fill:#B39599;" width="7.1" height="7.1"/>
  <rect x="149.575" y="384.9" style="fill:#B39599;" width="7.1" height="7.1"/>
  <rect x="149.575" y="377.8" style="fill:#B39599;" width="7.1" height="7.1"/>
  <rect x="149.575" y="370.7" style="fill:#B39599;" width="7.1" height="7.1"/>
  <rect x="149.575" y="363.6" style="fill:#B39599;" width="7.1" height="7.1"/>
  <rect x="149.575" y="356.5" style="fill:#D4C3C4;" width="7.1" height="7.1"/>
  <rect x="149.575" y="349.4" style="fill:#D4C3C4;" width="7.1" height="7.1"/>
  <rect x="149.575" y="342.3" style="fill:#412123;" width="7.1" height="7.1"/>
  <rect x="142.475" y="448.8" style="fill:#412123;" width="7.1" height="7.1"/>
  <rect x="142.475" y="441.7" style="fill:#7A5357;" width="7.1" height="7.1"/>
  <rect x="142.475" y="434.6" style="fill:#7A5357;" width="7.1" height="7.1"/>
  <rect x="142.475" y="427.5" style="fill:#7A5357;" width="7.1" height="7.1"/>
  <rect x="142.475" y="420.4" style="fill:#7A5357;" width="7.1" height="7.1"/>
  <rect x="142.475" y="413.3" style="fill:#7A5357;" width="7.1" height="7.1"/>
  <rect x="142.475" y="406.2" style="fill:#B39599;" width="7.1" height="7.1"/>
  <rect x="142.475" y="399.1" style="fill:#B39599;" width="7.1" height="7.1"/>
  <rect x="142.475" y="392" style="fill:#B39599;" width="7.1" height="7.1"/>
  <rect x="142.475" y="384.9" style="fill:#B39599;" width="7.1" height="7.1"/>
  <rect x="142.475" y="377.8" style="fill:#B39599;" width="7.1" height="7.1"/>
  <rect x="142.475" y="370.7" style="fill:#D4C3C4;" width="7.1" height="7.1"/>
  <rect x="142.475" y="363.6" style="fill:#D4C3C4;" width="7.1" height="7.1"/>
  <rect x="142.475" y="356.5" style="fill:#D4C3C4;" width="7.1" height="7.1"/>
  <rect x="142.475" y="349.4" style="fill:#D4C3C4;" width="7.1" height="7.1"/>
  <rect x="142.475" y="342.3" style="fill:#D4C3C4;" width="7.1" height="7.1"/>
  <rect x="142.475" y="335.2" style="fill:#412123;" width="7.1" height="7.1"/>
  <rect x="135.375" y="441.7" style="fill:#412123;" width="7.1" height="7.1"/>
  <rect x="135.375" y="434.6" style="fill:#412123;" width="7.1" height="7.1"/>
  <rect x="135.375" y="427.5" style="fill:#412123;" width="7.1" height="7.1"/>
  <rect x="135.375" y="420.4" style="fill:#412123;" width="7.1" height="7.1"/>
  <rect x="135.375" y="413.3" style="fill:#7A5357;" width="7.1" height="7.1"/>
  <rect x="135.375" y="406.2" style="fill:#B39599;" width="7.1" height="7.1"/>
  <rect x="135.375" y="399.1" style="fill:#B39599;" width="7.1" height="7.1"/>
  <rect x="135.375" y="392" style="fill:#B39599;" width="7.1" height="7.1"/>
  <rect x="135.375" y="384.9" style="fill:#B39599;" width="7.1" height="7.1"/>
  <rect x="135.375" y="377.8" style="fill:#B39599;" width="7.1" height="7.1"/>
  <rect x="135.375" y="370.7" style="fill:#D4C3C4;" width="7.1" height="7.1"/>
  <rect x="135.375" y="363.6" style="fill:#412123;" width="7.1" height="7.1"/>
  <rect x="135.375" y="356.5" style="fill:#412123;" width="7.1" height="7.1"/>
  <rect x="135.375" y="349.4" style="fill:#412123;" width="7.1" height="7.1"/>
  <rect x="135.375" y="342.3" style="fill:#412123;" width="7.1" height="7.1"/>
  <rect x="128.275" y="420.4" style="fill:#412123;" width="7.1" height="7.1"/>
  <rect x="128.275" y="413.3" style="fill:#7A5357;" width="7.1" height="7.1"/>
  <rect x="128.275" y="406.2" style="fill:#B39599;" width="7.1" height="7.1"/>
  <rect x="128.275" y="399.1" style="fill:#B39599;" width="7.1" height="7.1"/>
  <rect x="128.275" y="392" style="fill:#B39599;" width="7.1" height="7.1"/>
  <rect x="128.275" y="384.9" style="fill:#B39599;" width="7.1" height="7.1"/>
  <rect x="128.275" y="377.8" style="fill:#B39599;" width="7.1" height="7.1"/>
  <rect x="128.275" y="370.7" style="fill:#D4C3C4;" width="7.1" height="7.1"/>
  <rect x="128.275" y="363.6" style="fill:#412123;" width="7.1" height="7.1"/>
  <rect x="121.175" y="420.4" style="fill:#412123;" width="7.1" height="7.1"/>
  <rect x="121.175" y="413.3" style="fill:#7A5357;" width="7.1" height="7.1"/>
  <rect x="121.175" y="406.2" style="fill:#B39599;" width="7.1" height="7.1"/>
  <rect x="121.175" y="399.1" style="fill:#B39599;" width="7.1" height="7.1"/>
  <rect x="121.175" y="392" style="fill:#B39599;" width="7.1" height="7.1"/>
  <rect x="121.175" y="384.9" style="fill:#B39599;" width="7.1" height="7.1"/>
  <rect x="121.175" y="377.8" style="fill:#B39599;" width="7.1" height="7.1"/>
  <rect x="121.175" y="370.7" style="fill:#D4C3C4;" width="7.1" height="7.1"/>
  <rect x="121.175" y="363.6" style="fill:#412123;" width="7.1" height="7.1"/>
  <rect x="114.075" y="420.4" style="fill:#412123;" width="7.1" height="7.1"/>
  <rect x="114.075" y="413.3" style="fill:#7A5357;" width="7.1" height="7.1"/>
  <rect x="114.075" y="406.2" style="fill:#B39599;" width="7.1" height="7.1"/>
  <rect x="114.075" y="399.1" style="fill:#B39599;" width="7.1" height="7.1"/>
  <rect x="114.075" y="392" style="fill:#B39599;" width="7.1" height="7.1"/>
  <rect x="114.075" y="384.9" style="fill:#B39599;" width="7.1" height="7.1"/>
  <rect x="114.075" y="377.8" style="fill:#B39599;" width="7.1" height="7.1"/>
  <rect x="114.075" y="370.7" style="fill:#D4C3C4;" width="7.1" height="7.1"/>
  <rect x="114.075" y="363.6" style="fill:#412123;" width="7.1" height="7.1"/>
  <rect x="106.975" y="420.4" style="fill:#412123;" width="7.1" height="7.1"/>
  <rect x="106.975" y="413.3" style="fill:#7A5357;" width="7.1" height="7.1"/>
  <rect x="106.975" y="406.2" style="fill:#B39599;" width="7.1" height="7.1"/>
  <rect x="106.975" y="399.1" style="fill:#B39599;" width="7.1" height="7.1"/>
  <rect x="106.975" y="392" style="fill:#B39599;" width="7.1" height="7.1"/>
  <rect x="106.975" y="384.9" style="fill:#B39599;" width="7.1" height="7.1"/>
  <rect x="106.975" y="377.8" style="fill:#B39599;" width="7.1" height="7.1"/>
  <rect x="106.975" y="370.7" style="fill:#D4C3C4;" width="7.1" height="7.1"/>
  <rect x="106.975" y="363.6" style="fill:#412123;" width="7.1" height="7.1"/>
  <rect x="99.875" y="420.4" style="fill:#412123;" width="7.1" height="7.1"/>
  <rect x="99.875" y="413.3" style="fill:#7A5357;" width="7.1" height="7.1"/>
  <rect x="99.875" y="406.2" style="fill:#B39599;" width="7.1" height="7.1"/>
  <rect x="99.875" y="399.1" style="fill:#B39599;" width="7.1" height="7.1"/>
  <rect x="99.875" y="392" style="fill:#B39599;" width="7.1" height="7.1"/>
  <rect x="99.875" y="384.9" style="fill:#B39599;" width="7.1" height="7.1"/>
  <rect x="99.875" y="377.8" style="fill:#B39599;" width="7.1" height="7.1"/>
  <rect x="99.875" y="370.7" style="fill:#D4C3C4;" width="7.1" height="7.1"/>
  <rect x="99.875" y="363.6" style="fill:#412123;" width="7.1" height="7.1"/>
  <rect x="92.775" y="420.4" style="fill:#412123;" width="7.1" height="7.1"/>
  <rect x="92.775" y="413.3" style="fill:#7A5357;" width="7.1" height="7.1"/>
  <rect x="92.775" y="406.2" style="fill:#B39599;" width="7.1" height="7.1"/>
  <rect x="92.775" y="399.1" style="fill:#B39599;" width="7.1" height="7.1"/>
  <rect x="92.775" y="392" style="fill:#B39599;" width="7.1" height="7.1"/>
  <rect x="92.775" y="384.9" style="fill:#B39599;" width="7.1" height="7.1"/>
  <rect x="92.775" y="377.8" style="fill:#B39599;" width="7.1" height="7.1"/>
  <rect x="92.775" y="370.7" style="fill:#D4C3C4;" width="7.1" height="7.1"/>
  <rect x="92.775" y="363.6" style="fill:#412123;" width="7.1" height="7.1"/>
  <rect x="85.675" y="420.4" style="fill:#412123;" width="7.1" height="7.1"/>
  <rect x="85.675" y="413.3" style="fill:#7A5357;" width="7.1" height="7.1"/>
  <rect x="85.675" y="406.2" style="fill:#B39599;" width="7.1" height="7.1"/>
  <rect x="85.675" y="399.1" style="fill:#B39599;" width="7.1" height="7.1"/>
  <rect x="85.675" y="392" style="fill:#B39599;" width="7.1" height="7.1"/>
  <rect x="85.675" y="384.9" style="fill:#B39599;" width="7.1" height="7.1"/>
  <rect x="85.675" y="377.8" style="fill:#B39599;" width="7.1" height="7.1"/>
  <rect x="85.675" y="370.7" style="fill:#D4C3C4;" width="7.1" height="7.1"/>
  <rect x="85.675" y="363.6" style="fill:#412123;" width="7.1" height="7.1"/>
  <rect x="78.575" y="420.4" style="fill:#412123;" width="7.1" height="7.1"/>
  <rect x="78.575" y="413.3" style="fill:#7A5357;" width="7.1" height="7.1"/>
  <rect x="78.575" y="406.2" style="fill:#B39599;" width="7.1" height="7.1"/>
  <rect x="78.575" y="399.1" style="fill:#B39599;" width="7.1" height="7.1"/>
  <rect x="78.575" y="392" style="fill:#B39599;" width="7.1" height="7.1"/>
  <rect x="78.575" y="384.9" style="fill:#B39599;" width="7.1" height="7.1"/>
  <rect x="78.575" y="377.8" style="fill:#B39599;" width="7.1" height="7.1"/>
  <rect x="78.575" y="370.7" style="fill:#D4C3C4;" width="7.1" height="7.1"/>
  <rect x="78.575" y="363.6" style="fill:#412123;" width="7.1" height="7.1"/>
  <rect x="71.475" y="420.4" style="fill:#412123;" width="7.1" height="7.1"/>
  <rect x="71.475" y="413.3" style="fill:#7A5357;" width="7.1" height="7.1"/>
  <rect x="71.475" y="406.2" style="fill:#B39599;" width="7.1" height="7.1"/>
  <rect x="71.475" y="399.1" style="fill:#B39599;" width="7.1" height="7.1"/>
  <rect x="71.475" y="392" style="fill:#B39599;" width="7.1" height="7.1"/>
  <rect x="71.475" y="384.9" style="fill:#B39599;" width="7.1" height="7.1"/>
  <rect x="71.475" y="377.8" style="fill:#B39599;" width="7.1" height="7.1"/>
  <rect x="71.475" y="370.7" style="fill:#D4C3C4;" width="7.1" height="7.1"/>
  <rect x="71.475" y="363.6" style="fill:#412123;" width="7.1" height="7.1"/>
  <rect x="64.375" y="420.4" style="fill:#412123;" width="7.1" height="7.1"/>
  <rect x="64.375" y="413.3" style="fill:#7A5357;" width="7.1" height="7.1"/>
  <rect x="64.375" y="406.2" style="fill:#B39599;" width="7.1" height="7.1"/>
  <rect x="64.375" y="399.1" style="fill:#B39599;" width="7.1" height="7.1"/>
  <rect x="64.375" y="392" style="fill:#B39599;" width="7.1" height="7.1"/>
  <rect x="64.375" y="384.9" style="fill:#B39599;" width="7.1" height="7.1"/>
  <rect x="64.375" y="377.8" style="fill:#B39599;" width="7.1" height="7.1"/>
  <rect x="64.375" y="370.7" style="fill:#D4C3C4;" width="7.1" height="7.1"/>
  <rect x="64.375" y="363.6" style="fill:#412123;" width="7.1" height="7.1"/>
  <rect x="57.275" y="420.4" style="fill:#412123;" width="7.1" height="7.1"/>
  <rect x="57.275" y="413.3" style="fill:#7A5357;" width="7.1" height="7.1"/>
  <rect x="57.275" y="406.2" style="fill:#B39599;" width="7.1" height="7.1"/>
  <rect x="57.275" y="399.1" style="fill:#B39599;" width="7.1" height="7.1"/>
  <rect x="57.275" y="392" style="fill:#B39599;" width="7.1" height="7.1"/>
  <rect x="57.275" y="384.9" style="fill:#B39599;" width="7.1" height="7.1"/>
  <rect x="57.275" y="377.8" style="fill:#B39599;" width="7.1" height="7.1"/>
  <rect x="57.275" y="370.7" style="fill:#D4C3C4;" width="7.1" height="7.1"/>
  <rect x="57.275" y="363.6" style="fill:#412123;" width="7.1" height="7.1"/>
  <rect x="50.175" y="413.3" style="fill:#412123;" width="7.1" height="7.1"/>
  <rect x="50.175" y="406.2" style="fill:#412123;" width="7.1" height="7.1"/>
  <rect x="50.175" y="399.1" style="fill:#412123;" width="7.1" height="7.1"/>
  <rect x="50.175" y="392" style="fill:#412123;" width="7.1" height="7.1"/>
  <rect x="50.175" y="384.9" style="fill:#412123;" width="7.1" height="7.1"/>
  <rect x="50.175" y="377.8" style="fill:#412123;" width="7.1" height="7.1"/>
  <rect x="50.175" y="370.7" style="fill:#412123;" width="7.1" height="7.1"/>
  </g>
</svg>