<svg xmlns="http://www.w3.org/2000/svg" xmlns:xlink="http://www.w3.org/1999/xlink" version="1.1" x="0px" y="0px" viewBox="0 0 55 77" xml:space="preserve">
  <g transform="translate(-69 -213)">
		<rect x="113.21" y="268.036" style="fill:#FFAF7C;" width="5.5" height="5.49"/>
		<rect x="107.72" y="268.036" style="fill:#FFAF7C;" width="5.49" height="5.49"/>
		<rect x="107.72" y="251.557" style="fill:#FFAF7C;" width="5.49" height="5.49"/>
		<rect x="107.72" y="229.577" style="fill:#F42A5A;" width="5.49" height="5.49"/>
		<rect x="107.72" y="224.077" style="fill:#F42A5A;" width="5.49" height="5.5"/>
		<rect x="107.72" y="218.587" style="fill:#F42A5A;" width="5.49" height="5.49"/>
		<rect x="102.22" y="273.526" style="fill:#FFAF7C;" width="5.5" height="5.5"/>
		<rect x="102.22" y="235.066" style="fill:#F42A5A;" width="5.5" height="5.5"/>
		<rect x="102.22" y="229.577" style="fill:#F42A5A;" width="5.5" height="5.49"/>
		<g>
			<polygon style="fill:#F0916C;" points="113.21,257.047 113.21,262.547 113.21,268.036 118.71,268.036 118.71,262.547      118.71,257.047    "/>
			<rect x="107.895" y="273.526" style="fill:#F0916C;" width="5.49" height="5.5"/>
			<rect x="102.22" y="246.057" style="fill:#F0916C;" width="5.5" height="5.5"/>
			<polygon style="fill:#F0916C;" points="96.904,279.026 96.904,284.517 102.395,284.517 107.895,284.517 107.895,279.026      102.395,279.026    "/>
		</g>
		<rect x="96.73" y="240.566" style="fill:#C47565;" width="5.49" height="5.49"/>
		<rect x="96.73" y="235.066" style="fill:#F42A5A;" width="5.49" height="5.5"/>
		<rect x="91.24" y="240.566" style="fill:#C47565;" width="5.49" height="5.49"/>
		<g>
			<polygon style="fill:#FFAF7C;" points="96.73,257.047 91.24,257.047 91.24,262.547 96.73,262.547 102.22,262.547 102.22,257.047         "/>
			<rect x="85.74" y="262.547" style="fill:#FFAF7C;" width="5.5" height="5.49"/>
		</g>
		<g>
			<polygon style="fill:#FF6A85;" points="96.73,218.587 91.24,218.587 91.24,224.077 91.24,229.577 96.73,229.577 102.22,229.577      102.22,224.077 102.22,218.587    "/>
			<polygon style="fill:#FF6A85;" points="85.74,235.066 85.74,240.566 91.24,240.566 96.73,240.566 96.73,235.066 91.24,235.066      91.24,229.577 85.74,229.577    "/>
		</g>
		<g>
			<polygon style="fill:#9A9AE6;" points="102.22,218.587 102.22,224.077 102.22,229.577 107.72,229.577 107.72,224.077      107.72,218.587    "/>
			<polygon style="fill:#9A9AE6;" points="91.24,229.577 91.24,235.066 96.73,235.066 102.22,235.066 102.22,229.577 96.73,229.577         "/>
			<polygon style="fill:#9A9AE6;" points="91.24,218.587 85.74,218.587 85.74,224.077 85.74,229.577 91.24,229.577 91.24,224.077         "/>
		</g>
		<g>
			<rect x="107.72" y="262.547" style="fill:#C47565;" width="5.49" height="5.49"/>
			<rect x="102.22" y="268.036" style="fill:#C47565;" width="5.5" height="5.49"/>
			<rect x="102.22" y="257.047" style="fill:#C47565;" width="5.5" height="5.5"/>
			<polygon style="fill:#C47565;" points="102.22,257.047 102.22,251.557 96.73,251.557 91.24,251.557 91.24,257.047 96.73,257.047         "/>
			<polygon style="fill:#C47565;" points="91.24,273.526 91.24,279.026 96.73,279.026 102.22,279.026 102.22,273.526 96.73,273.526         "/>
			<rect x="85.74" y="268.036" style="fill:#C47565;" width="5.5" height="5.49"/>
			<rect x="85.74" y="257.047" style="fill:#C47565;" width="5.5" height="5.5"/>
			<rect x="80.25" y="262.547" style="fill:#C47565;" width="5.49" height="5.49"/>
		</g>
		<rect x="80.25" y="229.577" style="fill:#FFABB1;" width="5.49" height="5.49"/>
		<rect x="80.25" y="224.077" style="fill:#FFABB1;" width="5.49" height="5.5"/>
		<rect x="80.25" y="218.587" style="fill:#FFABB1;" width="5.49" height="5.49"/>
		<g>
			<rect x="107.72" y="257.047" style="fill:#FFD393;" width="5.49" height="5.5"/>
			<rect x="102.22" y="251.557" style="fill:#FFD393;" width="5.5" height="5.49"/>
			<polygon style="fill:#FFD393;" points="96.73,262.547 91.24,262.547 91.24,268.036 91.24,273.526 96.73,273.526 102.22,273.526      102.22,268.036 107.72,268.036 107.72,262.547 102.22,262.547    "/>
			<polygon style="fill:#FFD393;" points="96.73,246.057 91.24,246.057 91.24,251.557 96.73,251.557 102.22,251.557 102.22,246.057         "/>
			<rect x="85.74" y="251.557" style="fill:#FFD393;" width="5.5" height="5.49"/>
			<polygon style="fill:#FFD393;" points="85.74,268.036 80.25,268.036 74.75,268.036 74.75,273.526 80.25,273.526 80.25,279.026      85.74,279.026 85.74,284.517 91.24,284.517 96.73,284.517 96.73,279.026 91.24,279.026 91.24,273.526 85.74,273.526    "/>
			<rect x="80.25" y="257.047" style="fill:#FFD393;" width="5.49" height="5.5"/>
		</g>
		<g>
			<rect x="85.74" y="246.057" style="fill:#FFEAC8;" width="5.5" height="5.5"/>
			<rect x="80.25" y="251.557" style="fill:#FFEAC8;" width="5.49" height="5.49"/>
			<polygon style="fill:#FFEAC8;" points="74.75,262.547 74.75,268.036 80.25,268.036 80.25,262.547 80.25,257.047 74.75,257.047         "/>
		</g>
		<g>
			<polygon style="fill:#473D61;" points="118.71,257.047 118.71,262.547 118.71,268.036 118.71,273.526 124.2,273.526      124.2,268.036 124.2,262.547 124.2,257.047    "/>
			<rect x="113.21" y="273.526" style="fill:#473D61;" width="5.5" height="5.5"/>
			<rect x="113.21" y="251.557" style="fill:#473D61;" width="5.5" height="5.49"/>
			<polygon style="fill:#473D61;" points="113.21,229.577 113.21,235.066 118.71,235.066 118.71,229.577 118.71,224.077      118.71,218.587 113.21,218.587 113.21,224.077    "/>
			<rect x="107.72" y="279.026" style="fill:#473D61;" width="5.49" height="5.49"/>
			<rect x="107.72" y="246.057" style="fill:#473D61;" width="5.49" height="5.5"/>
			<rect x="107.72" y="235.066" style="fill:#473D61;" width="5.49" height="5.5"/>
			<rect x="102.22" y="240.566" style="fill:#473D61;" width="5.5" height="5.49"/>
			<polygon style="fill:#473D61;" points="96.73,284.517 91.24,284.517 85.74,284.517 85.74,290.017 91.24,290.017 96.73,290.017      102.22,290.017 107.72,290.017 107.72,284.517 102.22,284.517    "/>
			<rect x="85.74" y="240.566" style="fill:#473D61;" width="5.5" height="5.49"/>
			<polygon style="fill:#473D61;" points="91.24,218.587 96.73,218.587 102.22,218.587 107.72,218.587 113.21,218.587      113.21,213.096 107.72,213.096 102.22,213.096 96.73,213.096 91.24,213.096 85.74,213.096 80.25,213.096 80.25,218.587      85.74,218.587    "/>
			<rect x="80.25" y="279.026" style="fill:#473D61;" width="5.49" height="5.49"/>
			<rect x="80.25" y="246.057" style="fill:#473D61;" width="5.49" height="5.5"/>
			<rect x="80.25" y="235.066" style="fill:#473D61;" width="5.49" height="5.5"/>
			<rect x="74.75" y="273.526" style="fill:#473D61;" width="5.5" height="5.5"/>
			<rect x="74.75" y="251.557" style="fill:#473D61;" width="5.5" height="5.49"/>
			<polygon style="fill:#473D61;" points="80.25,224.077 80.25,218.587 74.75,218.587 74.75,224.077 74.75,229.577 74.75,235.066      80.25,235.066 80.25,229.577    "/>
			<polygon style="fill:#473D61;" points="74.75,262.547 74.75,257.047 69.26,257.047 69.26,262.547 69.26,268.036 69.26,273.526      74.75,273.526 74.75,268.036    "/>
		</g>
	</g>
</svg>