<svg version="1.1" id="Capa_2" xmlns="http://www.w3.org/2000/svg" xmlns:xlink="http://www.w3.org/1999/xlink" x="0px" y="0px"
	 viewBox="0 0 460 420" xml:space="preserve">
   <g transform="translate(-213 -858)">
    <rect x="505.875" y="1216.563" style="fill:#FFD900;" width="12.277" height="12.016"/>
    <rect x="407.625" y="1216.563" style="fill:#F8AF4E;" width="12.281" height="12.016"/>
    <rect x="358.492" y="1216.563" style="fill:#FFD900;" width="12.289" height="12.016"/>
    <rect x="297.09" y="1084.441" style="fill:#FFD900;" width="12.273" height="11.996"/>
    <rect x="247.953" y="1036.391" style="fill:#FFE195;" width="12.281" height="12.024"/>
    <rect x="407.625" y="1012.387" style="fill:#FDF39D;" width="12.281" height="11.981"/>
    <rect x="346.211" y="1012.387" style="fill:#FDF39D;" width="12.281" height="11.981"/>
    <rect x="419.906" y="988.34" style="fill:#FDF39D;" width="12.281" height="12.02"/>
    <rect x="358.492" y="988.34" style="fill:#FFD900;" width="12.289" height="12.02"/>
    <polygon style="fill:#FFFFFF;" points="284.797,1060.41 297.09,1060.41 309.363,1060.41 321.648,1060.41 333.93,1060.41 
      346.211,1060.41 358.492,1060.41 370.781,1060.41 370.781,1048.414 383.055,1048.414 383.055,1036.391 395.344,1036.391 
      407.625,1036.391 407.625,1024.367 407.625,1012.387 419.906,1012.387 419.906,1000.359 419.906,988.34 432.188,988.34 
      432.188,976.332 432.188,964.324 444.469,964.324 444.469,952.309 444.469,940.301 444.469,928.293 444.469,916.277 
      432.188,916.277 419.906,916.277 419.906,928.293 407.625,928.293 407.625,940.301 395.344,940.301 395.344,952.309 
      383.055,952.309 383.055,964.324 383.055,976.332 370.781,976.332 370.781,988.34 370.781,1000.359 370.781,1012.387 
      370.781,1024.367 358.492,1024.367 346.211,1024.367 346.211,1012.387 333.93,1012.387 321.648,1012.387 309.363,1012.387 
      297.09,1012.387 284.797,1012.387 284.797,1024.367 272.516,1024.367 260.234,1024.367 260.234,1036.391 260.234,1048.414 
      260.234,1060.41 272.516,1060.41 "/>
    <rect x="407.625" y="916.277" style="fill:#FDF39D;" width="12.281" height="12.016"/>
    <polygon style="fill:#FDC301;" points="481.309,1216.563 481.309,1228.578 493.594,1228.578 505.875,1228.578 505.875,1216.563 
      493.594,1216.563 "/>
    <polygon style="fill:#FDC301;" points="555.004,1216.563 555.004,1228.578 555.004,1240.59 555.004,1252.594 567.285,1252.594 
      567.285,1240.59 567.285,1228.578 567.285,1216.563 567.285,1204.551 555.004,1204.551 "/>
    <rect x="505.875" y="1204.551" style="fill:#FDC301;" width="12.277" height="12.012"/>
    <rect x="407.625" y="1192.535" style="fill:#FDC301;" width="12.281" height="12.016"/>
    <polygon style="fill:#FDC301;" points="297.09,1204.551 297.09,1216.563 297.09,1228.578 297.09,1240.59 297.09,1252.594 
      297.09,1264.605 309.363,1264.605 309.363,1252.594 309.363,1240.59 309.363,1228.578 309.363,1216.563 309.363,1204.551 
      309.363,1192.535 297.09,1192.535 "/>
    <rect x="530.445" y="1132.48" style="fill:#FDC301;" width="12.277" height="12.008"/>
    <rect x="309.363" y="1132.48" style="fill:#FDC301;" width="12.285" height="12.008"/>
    <rect x="505.875" y="1048.414" style="fill:#FDC301;" width="12.277" height="11.996"/>
    <rect x="604.137" y="1036.391" style="fill:#FDC301;" width="12.281" height="12.024"/>
    <rect x="530.445" y="1036.391" style="fill:#FDC301;" width="12.277" height="12.024"/>
    <rect x="555.004" y="1024.367" style="fill:#FDC301;" width="12.281" height="12.023"/>
    <polygon style="fill:#FDC301;" points="604.137,1000.359 604.137,1012.387 604.137,1024.367 616.418,1024.367 616.418,1012.387 
      616.418,1000.359 "/>
    <rect x="247.953" y="1000.359" style="fill:#FDC301;" width="12.281" height="12.027"/>
    <polygon style="fill:#FDC301;" points="518.152,988.34 505.875,988.34 493.594,988.34 493.594,1000.359 505.875,1000.359 
      518.152,1000.359 530.445,1000.359 542.723,1000.359 542.723,988.34 530.445,988.34 "/>
    <polygon style="fill:#FDC301;" points="333.93,988.34 321.648,988.34 321.648,1000.359 333.93,1000.359 346.211,1000.359 
      358.492,1000.359 358.492,988.34 346.211,988.34 "/>
    <rect x="383.055" y="940.301" style="fill:#FDC301;" width="12.289" height="12.008"/>
    <polygon style="fill:#FDC301;" points="456.75,916.277 456.75,928.293 456.75,940.301 469.031,940.301 469.031,928.293 
      469.031,916.277 469.031,904.269 456.75,904.269 "/>
    <rect x="407.625" y="892.262" style="fill:#FDC301;" width="12.281" height="12.008"/>
    <polygon style="fill:#FDEB19;" points="542.723,1108.445 542.723,1120.473 530.445,1120.473 530.445,1132.48 542.723,1132.48 
      542.723,1144.488 542.723,1156.504 542.723,1168.523 542.723,1180.52 542.723,1192.535 542.723,1204.551 542.723,1216.563 
      542.723,1228.578 530.445,1228.578 518.152,1228.578 518.152,1240.59 530.445,1240.59 542.723,1240.59 542.723,1252.594 
      555.004,1252.594 555.004,1240.59 555.004,1228.578 555.004,1216.563 555.004,1204.551 555.004,1192.535 555.004,1180.52 
      555.004,1168.523 555.004,1156.504 555.004,1144.488 555.004,1132.48 555.004,1120.473 555.004,1108.445 555.004,1096.438 
      542.723,1096.438 "/>
    <rect x="555.004" y="1084.441" style="fill:#FDEB19;" width="12.281" height="11.996"/>
    <rect x="567.285" y="1072.418" style="fill:#FDEB19;" width="12.281" height="12.023"/>
    <rect x="579.566" y="1060.41" style="fill:#FDEB19;" width="12.293" height="12.008"/>
    <rect x="591.859" y="1048.414" style="fill:#FDEB19;" width="12.277" height="11.996"/>
    <polygon style="fill:#FDEB19;" points="628.691,1012.387 616.418,1012.387 616.418,1024.367 616.418,1036.391 628.691,1036.391 
      628.691,1024.367 640.98,1024.367 640.98,1012.387 "/>
    <polygon style="fill:#FDEB19;" points="284.797,1024.367 284.797,1012.387 297.09,1012.387 309.363,1012.387 321.648,1012.387 
      333.93,1012.387 346.211,1012.387 358.492,1012.387 358.492,1024.367 370.781,1024.367 370.781,1012.387 370.781,1000.359 
      358.492,1000.359 346.211,1000.359 333.93,1000.359 321.648,1000.359 309.363,1000.359 297.09,1000.359 284.797,1000.359 
      272.516,1000.359 260.234,1000.359 260.234,1012.387 247.953,1012.387 235.676,1012.387 223.395,1012.387 223.395,1024.367 
      235.676,1024.367 235.676,1036.391 247.953,1036.391 260.234,1036.391 260.234,1024.367 272.516,1024.367 "/>
    <polygon style="fill:#FAEB43;" points="579.566,1000.359 567.285,1000.359 555.004,1000.359 542.723,1000.359 530.445,1000.359 
      518.152,1000.359 505.875,1000.359 493.594,1000.359 493.594,988.34 493.594,976.332 481.309,976.332 481.309,964.324 
      481.309,952.309 469.031,952.309 469.031,940.301 456.75,940.301 456.75,928.293 456.75,916.277 456.75,904.269 456.75,892.262 
      444.469,892.262 444.469,880.242 444.469,868.234 432.188,868.234 419.906,868.234 419.906,880.242 419.906,892.262 
      419.906,904.269 407.625,904.269 407.625,916.277 419.906,916.277 432.188,916.277 444.469,916.277 444.469,928.293 
      444.469,940.301 444.469,952.309 444.469,964.324 432.188,964.324 432.188,976.332 432.188,988.34 432.188,1000.359 
      419.906,1000.359 419.906,1012.387 419.906,1024.367 407.625,1024.367 407.625,1036.391 395.344,1036.391 383.055,1036.391 
      383.055,1048.414 370.781,1048.414 370.781,1060.41 358.492,1060.41 346.211,1060.41 333.93,1060.41 321.648,1060.41 
      309.363,1060.41 297.09,1060.41 284.797,1060.41 272.516,1060.41 272.516,1072.418 284.797,1072.418 284.797,1084.441 
      297.09,1084.441 309.363,1084.441 309.363,1096.438 309.363,1108.445 321.648,1108.445 321.648,1120.473 321.648,1132.48 
      321.648,1144.488 309.363,1144.488 309.363,1156.504 309.363,1168.523 309.363,1180.52 309.363,1192.535 309.363,1204.551 
      309.363,1216.563 309.363,1228.578 309.363,1240.59 309.363,1252.594 321.648,1252.594 321.648,1240.59 333.93,1240.59 
      346.211,1240.59 346.211,1228.578 358.492,1228.578 358.492,1216.563 370.781,1216.563 383.055,1216.563 395.344,1216.563 
      395.344,1204.551 407.625,1204.551 407.625,1192.535 419.906,1192.535 432.188,1192.535 444.469,1192.535 456.75,1192.535 
      456.75,1204.551 469.031,1204.551 469.031,1216.563 481.309,1216.563 493.594,1216.563 505.875,1216.563 505.875,1204.551 
      505.875,1192.535 505.875,1180.52 493.594,1180.52 493.594,1168.523 493.594,1156.504 493.594,1144.488 481.309,1144.488 
      481.309,1132.48 481.309,1120.473 481.309,1108.445 469.031,1108.445 469.031,1096.438 469.031,1084.441 481.309,1084.441 
      493.594,1084.441 493.594,1072.418 505.875,1072.418 505.875,1060.41 505.875,1048.414 518.152,1048.414 530.445,1048.414 
      530.445,1036.391 542.723,1036.391 555.004,1036.391 555.004,1024.367 567.285,1024.367 579.566,1024.367 579.566,1012.387 
      591.859,1012.387 604.137,1012.387 604.137,1000.359 591.859,1000.359 "/>
    <rect x="370.781" y="964.324" style="fill:#FDEB19;" width="12.273" height="12.008"/>
    <rect x="395.344" y="928.293" style="fill:#FDEB19;" width="12.281" height="12.008"/>
    <polygon style="fill:#F39205;" points="579.566,1072.418 579.566,1060.41 591.859,1060.41 591.859,1048.414 604.137,1048.414 
      604.137,1036.391 616.418,1036.391 616.418,1024.367 604.137,1024.367 604.137,1012.387 591.859,1012.387 579.566,1012.387 
      579.566,1024.367 567.285,1024.367 567.285,1036.391 555.004,1036.391 542.723,1036.391 542.723,1048.414 530.445,1048.414 
      518.152,1048.414 518.152,1060.41 505.875,1060.41 505.875,1072.418 493.594,1072.418 493.594,1084.441 481.309,1084.441 
      469.031,1084.441 469.031,1096.438 469.031,1108.445 481.309,1108.445 481.309,1120.473 481.309,1132.48 481.309,1144.488 
      493.594,1144.488 493.594,1156.504 493.594,1168.523 493.594,1180.52 505.875,1180.52 505.875,1192.535 505.875,1204.551 
      518.152,1204.551 518.152,1216.563 518.152,1228.578 530.445,1228.578 542.723,1228.578 542.723,1216.563 542.723,1204.551 
      542.723,1192.535 542.723,1180.52 542.723,1168.523 542.723,1156.504 542.723,1144.488 530.445,1144.488 530.445,1132.48 
      530.445,1120.473 542.723,1120.473 542.723,1108.445 542.723,1096.438 555.004,1096.438 555.004,1084.441 567.285,1084.441 
      567.285,1072.418 "/>
    <path style="fill:#F39205;" d="M665.539,988.34h-12.277H640.98h-12.289h-12.273h-12.281h-12.277h-12.293h-12.281h-12.281v-12.008
      h-12.281h-12.277h-12.293v-12.008v-12.016h-12.277v-12.008h-12.281v-12.008v-12.016h-12.285v-12.008v-12.008h-12.277v-12.02v-12.008
      v-12.004H456.75v-12.02h-12.281v-12.008h-12.281h-12.281v12.008h-12.281v12.02v12.004v12.008h-12.281v12.02h-12.289v12.008v12.008
      h-12.273v12.016v12.008h-12.289v12.008h-12.281v12.016v12.008H333.93h-12.281h-12.285v12.008H297.09h-12.293h-12.281h-12.281
      h-12.281h-12.277h-12.281h-12.281h-12.281h-12.277v12.02v12.027v11.98h12.277v12.023h12.281v12.023h12.281v11.996h12.281v12.008
      h12.277v12.023h12.281v11.996h12.281v12.008h12.281v12.027h12.293v12.008v12.008v12.016v12.02v11.996h-12.293v12.016v12.016v12.012
      v12.016v12.012h-12.281v12.004v12.012v12.012v12.008h12.281h12.293v-12.008h12.273h12.285h12.281v-12.012h12.281h12.281v-12.012
      h12.289v-12.004h12.273h12.289v-12.012h12.281v-12.016h12.281v12.016h12.281h12.281h12.281h12.281v12.012h12.277h12.285v12.004
      h12.281v12.012h12.277h12.293v12.012h12.277h12.281h12.281v12.008h12.281h12.293v-12.008v-12.012v-12.012h-12.293v-12.004v-12.012
      v-12.016v-12.012v-12.016h-12.281v-12.016v-11.996v-12.02v-12.016v-12.008v-12.008v-12.027h12.281v-12.008h12.293h12.277h12.281
      v-11.996v-12.023h12.273v-12.008h12.289v-11.996h12.281v-12.023h12.277v-12.023h12.281v-11.98v-12.027v-12.02H665.539z
      M567.285,1084.441v11.996h-12.281v12.008v12.027v12.008v12.008v12.016v12.02v11.996v12.016v12.016h12.281v12.012v12.016v12.012
      v12.004h-12.281h-12.281v-12.004h-12.277h-12.293v-12.012h-12.277h-12.281h-12.285v-12.016h-12.277v-12.012H456.75v-12.016h-12.281
      h-12.281h-12.281v12.016h-12.281h-12.281v12.012h-12.289h-12.273v12.016h-12.289h-12.281v12.012H333.93h-12.281v12.004h-12.285
      v12.012H297.09v-12.012v-12.004v-12.012v-12.016v-12.012v-12.016h12.273v-12.016v-11.996v-12.02v-12.016v-12.008h12.285v-12.008
      v-12.027h-12.285v-12.008H297.09v-11.996h-12.293v-12.023h-12.281v-12.008h-12.281v-11.996h-12.281v-12.023h-12.277v-12.023h-12.281
      v-11.98h12.281h12.277v-12.027h12.281h12.281h12.281h12.293h12.273h12.285v-12.02h12.281h12.281h12.281h12.289v-12.008v-12.008
      h12.273v-12.016v-12.008h12.289v-12.008h12.281v-12.016v-12.008v-12.008h12.281v-12.02v-12.008h12.281h12.281v12.008v12.02h12.281
      v12.008h12.281v12.008v12.016v12.008v12.008h12.277v12.016v12.008h12.285v12.008h12.281h12.277h12.293h12.277v12.02h12.281h12.281
      h12.281h12.293h12.277h12.281v12.027h12.273h12.289v11.98h-12.289v12.023h-12.273v12.023h-12.281v11.996h-12.277v12.008h-12.293
      v12.023H567.285z"/>
  </g>
</svg>